<svg width="20" height="21" viewBox="0 0 20 21" fill="none" xmlns="http://www.w3.org/2000/svg">
<g clip-path="url(#clip0_127_2290)">
<path d="M17.0312 0.774902H2.96875C1.99949 0.774902 1.21094 1.56346 1.21094 2.53271V19.0171C1.21094 19.9863 1.99949 20.7749 2.96875 20.7749H17.0312C18.0005 20.7749 18.7891 19.9863 18.7891 19.0171V2.53271C18.7891 1.56346 18.0005 0.774902 17.0312 0.774902ZM17.6172 19.0171C17.6172 19.3402 17.3543 19.603 17.0312 19.603H2.96875C2.64566 19.603 2.38281 19.3402 2.38281 19.0171V2.53271C2.38281 2.20963 2.64566 1.94678 2.96875 1.94678H17.0312C17.3543 1.94678 17.6172 2.20963 17.6172 2.53271V19.0171Z" fill="#1D1D1B"/>
<path d="M15.8594 3.11865H4.14062C3.81703 3.11865 3.55469 3.381 3.55469 3.70459V8.47021C3.55469 8.79381 3.81703 9.05615 4.14062 9.05615H15.8594C16.183 9.05615 16.4453 8.79381 16.4453 8.47021V3.70459C16.4453 3.381 16.183 3.11865 15.8594 3.11865ZM15.2734 7.88428H4.72656V4.29053H15.2734V7.88428Z" fill="#1D1D1B"/>
<path d="M6.48438 10.228H4.14062C3.81703 10.228 3.55469 10.4904 3.55469 10.814V13.1577C3.55469 13.4813 3.81703 13.7437 4.14062 13.7437H6.48438C6.80797 13.7437 7.07031 13.4813 7.07031 13.1577V10.814C7.07031 10.4904 6.80797 10.228 6.48438 10.228ZM5.89844 12.5718H4.72656V11.3999H5.89844V12.5718Z" fill="#1D1D1B"/>
<path d="M6.48438 14.9155H4.14062C3.81703 14.9155 3.55469 15.1779 3.55469 15.5015V17.8452C3.55469 18.1688 3.81703 18.4312 4.14062 18.4312H6.48438C6.80797 18.4312 7.07031 18.1688 7.07031 17.8452V15.5015C7.07031 15.1779 6.80797 14.9155 6.48438 14.9155ZM5.89844 17.2593H4.72656V16.0874H5.89844V17.2593Z" fill="#1D1D1B"/>
<path d="M11.1719 10.228H8.82812C8.50453 10.228 8.24219 10.4904 8.24219 10.814V13.1577C8.24219 13.4813 8.50453 13.7437 8.82812 13.7437H11.1719C11.4955 13.7437 11.7578 13.4813 11.7578 13.1577V10.814C11.7578 10.4904 11.4955 10.228 11.1719 10.228ZM10.5859 12.5718H9.41406V11.3999H10.5859V12.5718Z" fill="#1D1D1B"/>
<path d="M11.1719 14.9155H8.82812C8.50453 14.9155 8.24219 15.1779 8.24219 15.5015V17.8452C8.24219 18.1688 8.50453 18.4312 8.82812 18.4312H11.1719C11.4955 18.4312 11.7578 18.1688 11.7578 17.8452V15.5015C11.7578 15.1779 11.4955 14.9155 11.1719 14.9155ZM10.5859 17.2593H9.41406V16.0874H10.5859V17.2593Z" fill="#1D1D1B"/>
<path d="M15.8594 10.228H13.5156C13.192 10.228 12.9297 10.4904 12.9297 10.814V17.8452C12.9297 18.1688 13.192 18.4312 13.5156 18.4312H15.8594C16.183 18.4312 16.4453 18.1688 16.4453 17.8452V10.814C16.4453 10.4904 16.183 10.228 15.8594 10.228ZM15.2734 17.2593H14.1016V11.3999H15.2734V17.2593Z" fill="#1D1D1B"/>
</g>
<defs>
<clipPath id="clip0_127_2290">
<rect width="20" height="20" fill="white" transform="translate(0 0.774902)"/>
</clipPath>
</defs>
</svg>
