<svg width="22" height="22" viewBox="0 0 22 22" fill="none" xmlns="http://www.w3.org/2000/svg">
<path fill-rule="evenodd" clip-rule="evenodd" d="M5.93053 10.9722C6.19902 10.7038 6.63432 10.7038 6.9028 10.9722L9.16667 13.2361L15.0972 7.30557C15.3657 7.03709 15.801 7.03709 16.0695 7.30557C16.338 7.57406 16.338 8.00936 16.0695 8.27784L9.6528 14.6945C9.38432 14.963 8.94902 14.963 8.68053 14.6945L5.93053 11.9445C5.66205 11.676 5.66205 11.2407 5.93053 10.9722Z" fill="#000"/>
<path fill-rule="evenodd" clip-rule="evenodd" d="M11 2.52087C6.31708 2.52087 2.52083 6.31713 2.52083 11C2.52083 15.683 6.31708 19.4792 11 19.4792C15.6829 19.4792 19.4792 15.683 19.4792 11C19.4792 6.31713 15.6829 2.52087 11 2.52087ZM1.14583 11C1.14583 5.55773 5.55769 1.14587 11 1.14587C16.4423 1.14587 20.8542 5.55773 20.8542 11C20.8542 16.4423 16.4423 20.8542 11 20.8542C5.55769 20.8542 1.14583 16.4423 1.14583 11Z" fill="#000"/>
</svg>
