<svg width="24" height="25" viewBox="0 0 24 25" fill="none" xmlns="http://www.w3.org/2000/svg">
<path fill-rule="evenodd" clip-rule="evenodd" d="M18 21.8486L6 21.8486C5.44772 21.8486 5 21.4009 5 20.8486C5 20.2963 5.44772 19.8486 6 19.8486L18 19.8486C18.5523 19.8486 19 20.2963 19 20.8486C19 21.4009 18.5523 21.8486 18 21.8486Z" fill="#BE8C55"/>
<path fill-rule="evenodd" clip-rule="evenodd" d="M12 3.84863C12.5523 3.84863 13 4.29635 13 4.84863V14.4344L14.7929 12.6415C15.1834 12.251 15.8166 12.251 16.2071 12.6415C16.5976 13.0321 16.5976 13.6652 16.2071 14.0557L12.7071 17.5557C12.3166 17.9463 11.6834 17.9463 11.2929 17.5557L7.79289 14.0557C7.40237 13.6652 7.40237 13.0321 7.79289 12.6415C8.18342 12.251 8.81658 12.251 9.20711 12.6415L11 14.4344V4.84863C11 4.29635 11.4477 3.84863 12 3.84863Z" fill="#BE8C55"/>
</svg>
