<svg width="13" height="17" viewBox="0 0 13 17" fill="none" xmlns="http://www.w3.org/2000/svg">
<path d="M12.8334 1.02424L12.8334 16.0242C12.8329 16.1761 12.7911 16.325 12.7123 16.4548C12.6335 16.5846 12.5208 16.6905 12.3863 16.7611C12.2518 16.8316 12.1006 16.8641 11.949 16.8552C11.7974 16.8462 11.6511 16.796 11.5259 16.7101L0.692588 9.21007C0.243422 8.89924 0.243422 8.15091 0.692588 7.83924L11.5259 0.339241C11.6509 0.252428 11.7972 0.201519 11.9491 0.192045C12.1009 0.182571 12.2525 0.214894 12.3873 0.285502C12.522 0.356111 12.6349 0.462304 12.7135 0.592544C12.7922 0.722784 12.8337 0.872091 12.8334 1.02424Z" fill="white"/>
</svg>
