<svg width="14" height="19" viewBox="0 0 14 19" fill="none" xmlns="http://www.w3.org/2000/svg">
<path fill-rule="evenodd" clip-rule="evenodd" d="M10.2992 7.2787C10.2992 7.57892 10.545 7.82264 10.8481 7.82319H3.1502C3.45332 7.82264 3.69916 7.57892 3.69916 7.2787V4.5562C3.69916 2.75493 5.1797 1.2892 6.99916 1.2892C8.81862 1.2892 10.2992 2.75493 10.2992 4.5562V7.2787ZM3.14812 7.82319C2.84499 7.82264 2.59916 7.57892 2.59916 7.2787V4.5562C2.59916 2.1538 4.5725 0.200195 6.99916 0.200195C9.42582 0.200195 11.3992 2.1538 11.3992 4.5562V7.2787C11.3992 7.57892 11.1533 7.82264 10.8502 7.82319H11.95C12.8593 7.82319 13.6 8.55566 13.6 9.45669V17.0797C13.6 17.9807 12.8593 18.7132 11.95 18.7132H2.04999C1.14067 18.7132 0.399994 17.9807 0.399994 17.0797V9.45669C0.399994 8.55566 1.14067 7.82319 2.04999 7.82319H3.14812Z" fill="#E9EAEA"/>
</svg>
