<svg width="54" height="54" viewBox="0 0 54 54" fill="none" xmlns="http://www.w3.org/2000/svg">
<rect width="54" height="54" rx="12" fill="white"/>
<g clip-path="url(#clip0_352_6314)">
<path d="M27.5001 49C39.3743 49 49.0002 39.3741 49.0002 27.5C49.0002 15.6259 39.3743 6 27.5001 6C15.6259 6 6 15.6259 6 27.5C6 39.3741 15.6259 49 27.5001 49Z" fill="#CE2457"/>
<path fill-rule="evenodd" clip-rule="evenodd" d="M26.4424 14.5684C19.7786 15.1155 14.5413 20.697 14.5413 27.5017C14.5413 34.669 20.3514 40.479 27.5186 40.479C34.6858 40.479 40.496 34.669 40.496 27.5017C40.496 20.6934 35.2531 15.1096 28.5844 14.5676L28.2348 23.0911C30.3618 23.4338 31.9863 25.2781 31.9863 27.5017C31.9863 29.9692 29.9861 31.9695 27.5186 31.9695C25.0512 31.9695 23.0508 29.9692 23.0508 27.5017C23.0508 25.2818 24.6701 23.4399 26.7919 23.0928L26.4424 14.5684Z" fill="white"/>
<path d="M27.5044 13.6599C29.0514 13.6599 30.3055 12.4057 30.3055 10.8587C30.3055 9.31172 29.0514 8.05762 27.5044 8.05762C25.9574 8.05762 24.7032 9.31172 24.7032 10.8587C24.7032 12.4057 25.9574 13.6599 27.5044 13.6599Z" fill="white"/>
</g>
<defs>
<clipPath id="clip0_352_6314">
<rect width="43" height="43" fill="white" transform="translate(6 6)"/>
</clipPath>
</defs>
</svg>
