<svg width="24" height="25" viewBox="0 0 24 25" fill="none" xmlns="http://www.w3.org/2000/svg">
<path d="M7 22.7002L17 22.7002" stroke="#BE8C55" stroke-width="1.5" stroke-linecap="round" stroke-linejoin="round"/>
<path d="M2 17.7002V4.7002C2 3.59563 2.89543 2.7002 4 2.7002H20C21.1046 2.7002 22 3.59563 22 4.7002V17.7002C22 18.8048 21.1046 19.7002 20 19.7002H4C2.89543 19.7002 2 18.8048 2 17.7002Z" stroke="#BE8C55" stroke-width="1.5"/>
<path d="M12.4851 6.82146L15.5455 7.58658C15.8126 7.65335 16.0011 7.89666 15.9937 8.17188C15.8176 14.6999 12 15.7002 12 15.7002C12 15.7002 8.18239 14.6999 8.00629 8.17188C7.99886 7.89666 8.18738 7.65335 8.45448 7.58658L11.5149 6.82146C11.8334 6.74184 12.1666 6.74184 12.4851 6.82146Z" stroke="#BE8C55" stroke-width="1.5" stroke-linecap="round" stroke-linejoin="round"/>
</svg>
