<svg width="32" height="32" viewBox="0 0 32 32" fill="none" xmlns="http://www.w3.org/2000/svg">
<path d="M26.6667 16.0001V7.58194C26.6667 7.42281 26.6035 7.2702 26.491 7.15768L22.1758 2.84248C22.0633 2.72996 21.9106 2.66675 21.7515 2.66675H5.93337C5.602 2.66675 5.33337 2.93538 5.33337 3.26675V28.7334C5.33337 29.0648 5.602 29.3334 5.93337 29.3334H17.3334" stroke="white" stroke-width="1.5" stroke-linecap="round" stroke-linejoin="round"/>
<path d="M10.6666 13.3333H21.3333M10.6666 8H16M10.6666 18.6667H14.6666" stroke="white" stroke-width="1.5" stroke-linecap="round" stroke-linejoin="round"/>
<path d="M21.3334 2.66675V7.40008C21.3334 7.73145 21.602 8.00008 21.9334 8.00008H26.6667" stroke="white" stroke-width="1.5" stroke-linecap="round" stroke-linejoin="round"/>
<path d="M26.4923 20.125L30.2144 21.0703C30.4804 21.1379 30.6676 21.3821 30.6615 21.6565C30.4875 29.4722 26 30.6667 26 30.6667C26 30.6667 21.5126 29.4722 21.3386 21.6565C21.3325 21.3821 21.5196 21.1379 21.7857 21.0703L25.5077 20.125C25.8308 20.043 26.1693 20.043 26.4923 20.125Z" stroke="white" stroke-width="1.5" stroke-linecap="round" stroke-linejoin="round"/>
</svg>
