<svg width="13" height="17" viewBox="0 0 13 17" fill="none" xmlns="http://www.w3.org/2000/svg">
<path d="M0.166578 1.02424L0.166578 16.0242C0.167054 16.1761 0.20894 16.325 0.287727 16.4548C0.366513 16.5846 0.479215 16.6905 0.613705 16.7611C0.748195 16.8316 0.899378 16.8641 1.05098 16.8552C1.20258 16.8462 1.34886 16.796 1.47408 16.7101L12.3074 9.21007C12.7566 8.89924 12.7566 8.15091 12.3074 7.83924L1.47408 0.339241C1.34913 0.252428 1.20277 0.201519 1.05092 0.192045C0.899061 0.182571 0.747514 0.214894 0.61274 0.285502C0.477965 0.356111 0.365117 0.462304 0.286459 0.592544C0.2078 0.722784 0.166339 0.872091 0.166578 1.02424Z" fill="white"/>
</svg>
