<svg width="24" height="25" viewBox="0 0 24 25" fill="none" xmlns="http://www.w3.org/2000/svg">
<path fill-rule="evenodd" clip-rule="evenodd" d="M5 0.803101C2.23858 0.803101 0 3.04168 0 5.8031V19.8031C0 22.5645 2.23858 24.8031 5 24.8031H19C21.7614 24.8031 24 22.5645 24 19.8031V5.8031C24 3.04168 21.7614 0.803101 19 0.803101H5ZM13.3162 9.17373C12.5679 6.77991 14.1993 4.18331 16.669 3.83718C17.6982 3.69294 19.0389 4.01702 19.8735 4.61183L20.2354 4.86977V5.87685V6.88394H19.5591H18.8828V6.20339V5.52284L18.6309 5.40256C17.6093 4.9147 16.3423 5.06007 15.5614 5.75484C14.9908 6.26248 14.6483 7.08971 14.6483 7.96039C14.6483 8.846 14.9026 9.47032 15.4953 10.0398C15.8745 10.4042 16.2848 10.6117 16.8154 10.7076C17.6033 10.8499 18.5693 10.5309 19.1403 9.93966L19.4272 9.64258L19.949 10.0396C20.2359 10.258 20.4707 10.4594 20.4707 10.4871C20.4707 10.6069 19.7647 11.2745 19.3851 11.5135C18.1702 12.2787 16.7145 12.3298 15.3579 11.655C14.4307 11.1937 13.6517 10.247 13.3162 9.17373ZM4.15035 5.36032L4.1337 4.68813L4.11706 4.01595L5.36875 4.01643L6.62045 4.01684L7.59085 6.91238C8.54272 9.75264 8.56278 9.80426 8.64165 9.61563C8.71963 9.42921 9.65251 6.69005 10.2487 4.89726L10.5417 4.01595H11.7128H12.8839V4.7011V5.38625L12.2304 5.40316L11.5768 5.42007L10.497 8.3478C9.90322 9.95806 9.35874 11.4436 9.28717 11.649L9.15702 12.0224H8.50603H7.85503L7.15711 10.0357C6.7733 8.94309 6.24764 7.45162 5.98905 6.72148L5.51884 5.39384L4.83462 5.37711L4.15035 5.36032ZM4.70906 14.9502V14.3228V13.6954H5.93706H7.16499L7.2074 14.4417L7.24974 15.188L7.49311 14.8544C7.78811 14.4497 8.29707 14.0503 8.7528 13.8655C9.04169 13.7483 9.22036 13.7255 9.98744 13.7078L10.8843 13.687V14.918V16.1491L10.2227 16.1322L9.56106 16.1153L9.54412 15.5246L9.52718 14.934L9.23941 14.9687C8.51438 15.0559 7.80999 15.6953 7.53821 16.5129C7.42388 16.8568 7.41441 17.015 7.41441 18.5766V20.2679H9.06115H10.7079V20.9251V21.5824H7.70848H4.70906V20.9251V20.2679H5.35599H6.00293V17.609V14.9502H5.35599H4.70906ZM12.3252 15.0398L12.3086 14.3676L12.2919 13.6954H13.6144H14.9369L14.9544 16.4887L14.9718 19.282L15.1243 19.6106C15.3308 20.0555 15.6034 20.3111 15.9947 20.4266C16.8618 20.6827 17.8443 20.1587 18.2841 19.2054L18.4417 18.8638L18.4594 16.9687L18.4772 15.0736L17.8125 15.0567L17.1478 15.0398V14.3825V13.7253L18.5441 13.7093L19.9404 13.6933L19.9556 16.9656L19.9708 20.238L20.4854 20.2553L21 20.2725V20.9275V21.5824H19.9449C19.3645 21.5824 18.8759 21.5598 18.8591 21.5321C18.8424 21.5045 18.7963 21.2356 18.7568 20.9346C18.7174 20.6337 18.67 20.3881 18.6516 20.389C18.6332 20.3899 18.5519 20.5005 18.4711 20.6347C18.1176 21.2219 17.4138 21.6728 16.6843 21.7796C16.1572 21.8567 15.4637 21.7399 14.9586 21.4888C14.5437 21.2826 14.0742 20.8025 13.8695 20.3751C13.5315 19.6693 13.5135 19.5205 13.4866 17.2078L13.4619 15.0738L12.8936 15.0568L12.3252 15.0398ZM2.03311 21.6122L2.01653 20.9102L2 20.2081H2.70945H3.4189L3.40237 20.9102L3.38579 21.6122H2.70945H2.03311Z" fill="white"/>
</svg>
