<svg width="24" height="25" viewBox="0 0 24 25" fill="none" xmlns="http://www.w3.org/2000/svg">
<g clip-path="url(#clip0_866_6185)">
<path d="M0 0.803101V24.8031H24V0.803101H0ZM19.2399 14.1201C19.8189 14.7174 20.4388 15.2763 20.9995 15.8898C21.4071 16.3363 21.7842 16.8206 22.1071 17.3304C22.5156 17.9753 22.2633 18.5826 21.5003 18.6908C21.0202 18.7585 18.6754 18.6913 18.5542 18.6908C17.9238 18.688 17.3712 18.4693 16.9262 18.0412C16.4313 17.5645 15.9815 17.0417 15.5063 16.5443C15.3631 16.3944 15.2102 16.2507 15.0455 16.1253C14.6567 15.8288 14.2752 15.8946 14.0935 16.3512C13.9383 16.7433 13.8042 17.7731 13.798 17.861C13.7653 18.3208 13.4727 18.6139 12.9575 18.6423C11.4703 18.723 10.0292 18.5572 8.6867 17.8379C7.54882 17.2286 6.64018 16.367 5.85308 15.3623C4.60277 13.7664 3.61519 12.0121 2.71355 10.2064C2.66747 10.1141 1.75425 8.17082 1.7297 8.07902C1.64813 7.77169 1.72423 7.47809 1.98391 7.37703C2.14579 7.31399 5.15673 7.37682 5.20681 7.37951C5.68725 7.40547 6.01492 7.60817 6.21725 8.10688C6.79243 9.5273 7.52138 10.8665 8.48148 12.0687C8.60882 12.2288 8.76933 12.371 8.93843 12.4868C9.18542 12.6564 9.41845 12.5968 9.51888 12.3143C9.6251 12.0178 9.72258 11.4169 9.72837 11.1055C9.74422 10.292 9.726 9.75886 9.68229 8.94633C9.65396 8.42591 9.46896 7.96896 8.70345 7.83104C8.46705 7.78827 8.44509 7.59369 8.59697 7.39957C8.91315 6.99544 9.35362 6.93103 9.83127 6.90554C10.6054 6.86373 11.3824 6.89785 12.1575 6.90554C12.4732 6.90844 12.7908 6.93388 13.1017 7.00165C13.5073 7.09007 13.7245 7.37456 13.7913 7.77047C13.8259 7.9747 13.8437 8.18467 13.8388 8.39131C13.8187 9.27931 13.7759 10.1668 13.7658 11.0544C13.7615 11.4027 13.7869 11.7598 13.8614 12.099C13.9657 12.5719 14.2876 12.6905 14.6168 12.3489C15.0349 11.915 15.4035 11.4268 15.7494 10.9309C16.3779 10.029 16.8474 9.03912 17.2515 8.01852C17.4605 7.49189 17.6206 7.37751 18.187 7.37608C19.2519 7.37366 20.3167 7.37271 21.3816 7.37608C21.5704 7.37703 21.7679 7.39483 21.9462 7.4515C22.2354 7.54376 22.3503 7.77969 22.2825 8.07908C22.1244 8.78065 21.7453 9.37695 21.3393 9.95023C20.6877 10.8699 20.0049 11.7676 19.3379 12.6767C19.2529 12.7925 19.1779 12.916 19.1082 13.0414C18.8589 13.4921 18.8761 13.7448 19.2399 14.1201Z" fill="white"/>
</g>
<defs>
<clipPath id="clip0_866_6185">
<rect y="0.803101" width="24" height="24" rx="5" fill="white"/>
</clipPath>
</defs>
</svg>
