<svg width="64" height="64" viewBox="0 0 64 64" fill="none" xmlns="http://www.w3.org/2000/svg">
<path d="M27 40L39.975 32.5L27 25V40ZM55.9 20.425C56.225 21.6 56.45 23.175 56.6 25.175C56.775 27.175 56.85 28.9 56.85 30.4L57 32.5C57 37.975 56.6 42 55.9 44.575C55.275 46.825 53.825 48.275 51.575 48.9C50.4 49.225 48.25 49.45 44.95 49.6C41.7 49.775 38.725 49.85 35.975 49.85L32 50C21.525 50 15 49.6 12.425 48.9C10.175 48.275 8.725 46.825 8.1 44.575C7.775 43.4 7.55 41.825 7.4 39.825C7.225 37.825 7.15 36.1 7.15 34.6L7 32.5C7 27.025 7.4 23 8.1 20.425C8.725 18.175 10.175 16.725 12.425 16.1C13.6 15.775 15.75 15.55 19.05 15.4C22.3 15.225 25.275 15.15 28.025 15.15L32 15C42.475 15 49 15.4 51.575 16.1C53.825 16.725 55.275 18.175 55.9 20.425Z" fill="#E22A30"/>
<path d="M41 32.5L26 40.7272L26 24.2728L41 32.5Z" fill="white"/>
</svg>
