<svg width="24" height="25" viewBox="0 0 24 25" fill="none" xmlns="http://www.w3.org/2000/svg">
<g clip-path="url(#clip0_866_6187)">
<path d="M10.4531 10.4398V14.8208L14.4912 12.6493L10.4531 10.4398Z" fill="white"/>
<path d="M17.981 0.803101H6C2.70476 0.803101 0 3.50786 0 6.82215V18.8031C0 22.0983 2.70476 24.8031 6 24.8031H17.981C21.2952 24.8031 24 22.0983 24 18.7841V6.82215C24 3.50786 21.2952 0.803101 17.981 0.803101ZM19.4286 13.3936C19.4286 14.6507 19.3143 15.9269 19.3143 15.9269C19.3143 15.9269 19.181 16.9936 18.7429 17.4698C18.1714 18.0983 17.5429 18.0983 17.2571 18.1364C15.1619 18.2888 12.019 18.3079 12.019 18.3079C12.019 18.3079 8.11429 18.2507 6.91429 18.1364C6.59048 18.0793 5.82857 18.0983 5.25714 17.4698C4.8 16.9936 4.68571 15.9269 4.68571 15.9269C4.68571 15.9269 4.57143 14.6507 4.57143 13.3936V12.2126C4.57143 10.9555 4.68571 9.67929 4.68571 9.67929C4.68571 9.67929 4.81905 8.61262 5.25714 8.13643C5.82857 7.50786 6.45714 7.48882 6.74286 7.45072C8.85714 7.29834 12 7.27929 12 7.27929C12 7.27929 15.1429 7.29834 17.2381 7.45072C17.5238 7.48882 18.1714 7.50786 18.7429 8.11739C19.2 8.59358 19.3143 9.67929 19.3143 9.67929C19.3143 9.67929 19.4286 10.9555 19.4286 12.2126V13.3936Z" fill="white"/>
<path fill-rule="evenodd" clip-rule="evenodd" d="M5 0.803101C2.23858 0.803101 0 3.04168 0 5.8031V19.8031C0 22.5645 2.23858 24.8031 5 24.8031H19C21.7614 24.8031 24 22.5645 24 19.8031V5.8031C24 3.04168 21.7614 0.803101 19 0.803101H5ZM8.50016 4.30302C5.73874 4.30302 3.50016 6.54159 3.50016 9.30302V16.303C3.50016 19.0644 5.73874 21.303 8.50016 21.303H15.5002C18.2616 21.303 20.5002 19.0644 20.5002 16.303V9.30302C20.5002 6.5416 18.2616 4.30302 15.5002 4.30302H8.50016Z" fill="white"/>
</g>
<defs>
<clipPath id="clip0_866_6187">
<rect width="24" height="24" fill="white" transform="translate(0 0.803101)"/>
</clipPath>
</defs>
</svg>
