<svg width="310" height="28" viewBox="0 0 310 28" fill="none" xmlns="http://www.w3.org/2000/svg">
<path d="M201.621 0.225098L204.54 9.20788H213.985L206.344 14.7595L209.262 23.7423L201.621 18.1907L193.98 23.7423L196.899 14.7595L189.257 9.20788H198.702L201.621 0.225098Z" fill="#E22A30"/>
<path d="M0 5.11377H9.55957C11.6416 5.11377 13.1989 5.60889 14.2314 6.59912C15.2725 7.58936 15.793 8.99854 15.793 10.8267C15.793 12.7056 15.2259 14.174 14.0918 15.2319C12.9661 16.2899 11.2438 16.8188 8.9248 16.8188H5.77637V23.7251H0V5.11377ZM5.77637 13.0483H7.18555C8.29427 13.0483 9.07292 12.8579 9.52148 12.4771C9.97005 12.0877 10.1943 11.5926 10.1943 10.9917C10.1943 10.4077 9.99967 9.9126 9.61035 9.50635C9.22103 9.1001 8.48893 8.89697 7.41406 8.89697H5.77637V13.0483Z" fill="#1D1D1B"/>
<path d="M19.3218 5.11377H34.7339V9.0874H25.0854V12.0454H34.0356V15.8413H25.0854V19.5103H35.0132V23.7251H19.3218V5.11377Z" fill="#1D1D1B"/>
<path d="M56.4677 23.7251H50.7295V9.68408H44.4072V23.7251H38.6689V5.11377H56.4677V23.7251Z" fill="#1D1D1B"/>
<path d="M59.0698 5.11377H65.3159L67.893 12.7817L70.4321 5.11377H76.2846L70.1782 19.4849C69.6788 20.6444 69.2429 21.5119 68.8705 22.0874C68.4981 22.6545 67.9438 23.1242 67.2075 23.4966C66.4796 23.8605 65.4767 24.0425 64.1987 24.0425C63.5216 24.0425 62.3579 23.9452 60.7075 23.7505V19.9038C61.6808 20.0054 62.3917 20.0562 62.8403 20.0562C64.1691 20.0562 64.9773 19.561 65.2651 18.5708L59.0698 5.11377Z" fill="#1D1D1B"/>
<path d="M77.5029 5.11377H94.9843V9.70947H89.1191V23.7251H83.3681V9.70947H77.5029V5.11377Z" fill="#1D1D1B"/>
<path d="M109.571 20.6528H103.02L102.119 23.7251H96.2406L103.236 5.11377H109.507L116.502 23.7251H110.485L109.571 20.6528ZM108.365 16.6284L106.308 9.93799L104.264 16.6284H108.365Z" fill="#1D1D1B"/>
<path d="M138.706 27.7749H134.085V23.7251H118.901V5.11377H124.64V19.1548H130.962V5.11377H136.7V19.4341H138.706V27.7749Z" fill="#1D1D1B"/>
<path d="M159.577 5.11377V23.7251H154.168V13.5054L147.199 23.7251H141.778V5.11377H147.199V15.4097L154.206 5.11377H159.577Z" fill="#1D1D1B"/>
<path d="M180.396 23.7251H174.62V16.1714H174.112C173.587 16.1714 173.118 16.3153 172.703 16.603C172.398 16.8231 172.051 17.3013 171.662 18.0376L168.59 23.7251H162.09L164.87 18.3296C165.005 18.0588 165.272 17.6737 165.67 17.1743C166.076 16.675 166.385 16.3491 166.597 16.1968C166.91 15.9683 167.409 15.7397 168.095 15.5112C167.24 15.3166 166.567 15.0711 166.076 14.7749C165.306 14.3094 164.701 13.7043 164.261 12.9595C163.82 12.2062 163.6 11.3133 163.6 10.2808C163.6 9.09587 163.888 8.09294 164.464 7.27197C165.039 6.44255 165.797 5.87549 166.736 5.5708C167.676 5.26611 169.034 5.11377 170.811 5.11377H180.396V23.7251ZM174.62 12.6548V8.87158H172.094C171.044 8.87158 170.329 9.03239 169.948 9.354C169.567 9.67562 169.377 10.1369 169.377 10.7378C169.377 11.144 169.495 11.5037 169.732 11.8169C169.978 12.13 170.291 12.3247 170.672 12.4009C171.425 12.5701 171.933 12.6548 172.195 12.6548H174.62Z" fill="#1D1D1B"/>
<path d="M221.396 7.84033H226.634L228.655 15.6802L230.668 7.84033H235.889V20.7251H232.637V10.8989L230.114 20.7251H227.17L224.656 10.8989V20.7251H221.396V7.84033Z" fill="#1D1D1B"/>
<path d="M238.297 14.2915C238.297 12.188 238.882 10.5503 240.054 9.37842C241.226 8.20654 242.858 7.62061 244.95 7.62061C247.094 7.62061 248.747 8.19775 249.907 9.35205C251.067 10.5005 251.647 12.1118 251.647 14.186C251.647 15.6919 251.392 16.9282 250.882 17.895C250.379 18.856 249.646 19.606 248.685 20.145C247.73 20.6782 246.538 20.9448 245.108 20.9448C243.655 20.9448 242.451 20.7134 241.496 20.2505C240.547 19.7876 239.776 19.0552 239.184 18.0532C238.592 17.0513 238.297 15.7974 238.297 14.2915ZM242.278 14.3091C242.278 15.6099 242.518 16.5444 242.999 17.1128C243.485 17.6812 244.144 17.9653 244.976 17.9653C245.832 17.9653 246.494 17.687 246.963 17.1304C247.431 16.5737 247.666 15.5747 247.666 14.1333C247.666 12.9204 247.42 12.0356 246.927 11.479C246.441 10.9165 245.779 10.6353 244.941 10.6353C244.138 10.6353 243.494 10.9194 243.007 11.4878C242.521 12.0562 242.278 12.9966 242.278 14.3091Z" fill="#1D1D1B"/>
<path d="M262.73 15.4604L266.219 16.5151C265.985 17.4937 265.616 18.311 265.112 18.9673C264.608 19.6235 263.981 20.1187 263.231 20.4526C262.487 20.7866 261.537 20.9536 260.383 20.9536C258.983 20.9536 257.837 20.7515 256.947 20.3472C256.062 19.937 255.297 19.2192 254.653 18.1938C254.008 17.1685 253.686 15.856 253.686 14.2563C253.686 12.1235 254.251 10.4858 255.382 9.34326C256.519 8.19482 258.124 7.62061 260.199 7.62061C261.822 7.62061 263.096 7.94873 264.022 8.60498C264.953 9.26123 265.645 10.269 266.096 11.6284L262.58 12.4106C262.457 12.0181 262.328 11.731 262.194 11.5493C261.971 11.2446 261.699 11.0103 261.376 10.8462C261.054 10.6821 260.694 10.6001 260.295 10.6001C259.393 10.6001 258.701 10.9634 258.221 11.6899C257.858 12.229 257.676 13.0757 257.676 14.23C257.676 15.6597 257.893 16.6411 258.326 17.1743C258.76 17.7017 259.369 17.9653 260.155 17.9653C260.916 17.9653 261.491 17.7515 261.877 17.3237C262.27 16.896 262.554 16.2749 262.73 15.4604Z" fill="#1D1D1B"/>
<path d="M280.237 20.7251H275.755L274.208 17.394C273.839 16.6089 273.552 16.1196 273.347 15.9263C273.142 15.7271 272.857 15.6274 272.494 15.6274V20.7251H268.521V7.84033H272.494V12.7886C272.84 12.771 273.109 12.6479 273.303 12.4194C273.496 12.1909 273.798 11.5347 274.208 10.4507C274.507 9.64795 274.809 9.07373 275.113 8.72803C275.418 8.37646 275.913 8.12451 276.599 7.97217C277.284 7.81982 278.359 7.74365 279.824 7.74365V10.4683H279.622C278.942 10.4683 278.438 10.5972 278.11 10.855C277.782 11.1128 277.513 11.5317 277.302 12.1118C277.091 12.686 276.862 13.1167 276.616 13.4038C276.376 13.6851 276.045 13.9106 275.623 14.0806C276.197 14.2681 276.698 14.5933 277.126 15.0562C277.554 15.5132 278.008 16.228 278.488 17.2007L280.237 20.7251Z" fill="#1D1D1B"/>
<path d="M282.039 7.84033H289.492C290.734 7.84033 291.686 8.14795 292.348 8.76318C293.016 9.37842 293.35 10.1401 293.35 11.0483C293.35 11.8101 293.113 12.4634 292.638 13.0083C292.322 13.3716 291.859 13.6587 291.25 13.8696C292.175 14.0923 292.855 14.4761 293.289 15.021C293.728 15.5601 293.948 16.2397 293.948 17.0601C293.948 17.728 293.793 18.3286 293.482 18.8618C293.171 19.395 292.747 19.8169 292.208 20.1274C291.874 20.3208 291.37 20.4614 290.696 20.5493C289.799 20.6665 289.205 20.7251 288.912 20.7251H282.039V7.84033ZM286.055 12.894H287.787C288.408 12.894 288.838 12.7886 289.079 12.5776C289.325 12.3608 289.448 12.0503 289.448 11.646C289.448 11.271 289.325 10.978 289.079 10.7671C288.838 10.5562 288.417 10.4507 287.813 10.4507H286.055V12.894ZM286.055 17.9565H288.086C288.771 17.9565 289.254 17.8364 289.536 17.5962C289.817 17.3501 289.958 17.022 289.958 16.6118C289.958 16.231 289.817 15.9263 289.536 15.6978C289.26 15.4634 288.774 15.3462 288.077 15.3462H286.055V17.9565Z" fill="#1D1D1B"/>
<path d="M304.327 18.5981H299.792L299.168 20.7251H295.099L299.942 7.84033H304.283L309.126 20.7251H304.96L304.327 18.5981ZM303.492 15.812L302.069 11.1802L300.654 15.812H303.492Z" fill="#1D1D1B"/>
</svg>
