<svg width="232" height="22" viewBox="0 0 232 22" fill="none" xmlns="http://www.w3.org/2000/svg">
<path d="M151.317 2.05859L153.508 8.80019H160.596L154.861 12.9667L157.052 19.7083L151.317 15.5418L145.582 19.7083L147.773 12.9667L142.038 8.80019H149.127L151.317 2.05859Z" fill="#E22A30"/>
<path d="M135.388 18.7637H131.053V13.0947H130.672C130.278 13.0947 129.925 13.2026 129.614 13.4186C129.385 13.5838 129.125 13.9426 128.833 14.4953L126.527 18.7637H121.649L123.735 14.7144C123.837 14.5111 124.037 14.2221 124.336 13.8474C124.64 13.4726 124.872 13.228 125.031 13.1137C125.266 12.9422 125.641 12.7707 126.155 12.5992C125.514 12.4531 125.009 12.2689 124.64 12.0466C124.062 11.6972 123.608 11.2431 123.278 10.6841C122.948 10.1188 122.783 9.44866 122.783 8.67373C122.783 7.78446 122.999 7.03176 123.43 6.41563C123.862 5.79314 124.431 5.36756 125.136 5.13889C125.841 4.91022 126.86 4.79589 128.194 4.79589H135.388V18.7637ZM131.053 10.4554V7.61614H129.157C128.369 7.61614 127.832 7.73682 127.546 7.9782C127.261 8.21957 127.118 8.56575 127.118 9.01673C127.118 9.32162 127.207 9.59158 127.385 9.8266C127.569 10.0616 127.804 10.2077 128.09 10.2649C128.655 10.3919 129.036 10.4554 129.233 10.4554H131.053Z" fill="white"/>
<path d="M119.763 4.79589V18.7637H115.704V11.0938L110.473 18.7637H106.405V4.79589H110.473V12.523L115.732 4.79589H119.763Z" fill="white"/>
<path d="M104.099 21.8031H100.631V18.7637H89.2357V4.79589H93.5423V15.3337H98.2872V4.79589H102.594V15.5433H104.099V21.8031Z" fill="white"/>
<path d="M82.2331 16.458H77.3167L76.6402 18.7637H72.2288L77.4787 4.79589H82.1855L87.4353 18.7637H82.9191L82.2331 16.458ZM81.328 13.4377L79.7844 8.41648L78.2505 13.4377H81.328Z" fill="white"/>
<path d="M58.1661 4.79589H71.286V8.24498H66.8841V18.7637H62.568V8.24498H58.1661V4.79589Z" fill="white"/>
<path d="M44.332 4.79589H49.0197L50.9539 10.5507L52.8595 4.79589H57.2518L52.6689 15.5814C52.2941 16.4516 51.967 17.1027 51.6875 17.5346C51.408 17.9602 50.992 18.3128 50.4394 18.5922C49.8931 18.8654 49.1404 19.0019 48.1813 19.0019C47.6731 19.0019 46.7997 18.9289 45.5611 18.7828V15.8959C46.2916 15.9721 46.8251 16.0102 47.1618 16.0102C48.159 16.0102 48.7656 15.6386 48.9816 14.8954L44.332 4.79589Z" fill="white"/>
<path d="M42.3792 18.7637H38.0726V8.22592H33.3277V18.7637H29.0211V4.79589H42.3792V18.7637Z" fill="white"/>
<path d="M14.501 4.79589H26.0679V7.77811H18.8267V9.9981H25.5438V12.8469H18.8267V15.6005H26.2775V18.7637H14.501V4.79589Z" fill="white"/>
<path d="M0 4.79589H7.17448C8.73705 4.79589 9.9058 5.16747 10.6807 5.91065C11.462 6.65382 11.8527 7.71142 11.8527 9.08343C11.8527 10.4936 11.4271 11.5956 10.5759 12.3896C9.73113 13.1836 8.43851 13.5806 6.69809 13.5806H4.33518V18.7637H0V4.79589ZM4.33518 10.7508H5.39277C6.22487 10.7508 6.80925 10.6079 7.1459 10.3221C7.48255 10.0299 7.65088 9.65828 7.65088 9.20729C7.65088 8.76901 7.50478 8.39742 7.21259 8.09253C6.92041 7.78764 6.37097 7.63519 5.56427 7.63519H4.33518V10.7508Z" fill="white"/>
<path d="M228.398 14.9159H224.995L224.526 16.5122H221.472L225.107 6.84218H228.365L232 16.5122H228.873L228.398 14.9159ZM227.772 12.8249L226.703 9.34874L225.641 12.8249H227.772Z" fill="white"/>
<path d="M211.671 6.84218H217.264C218.197 6.84218 218.911 7.07305 219.408 7.53478C219.909 7.99652 220.16 8.56819 220.16 9.2498C220.16 9.82147 219.982 10.3118 219.626 10.7208C219.388 10.9934 219.041 11.2089 218.584 11.3672C219.278 11.5343 219.788 11.8223 220.114 12.2313C220.444 12.6359 220.609 13.146 220.609 13.7616C220.609 14.2629 220.492 14.7137 220.259 15.1138C220.026 15.514 219.707 15.8306 219.303 16.0637C219.052 16.2088 218.674 16.3143 218.168 16.3803C217.495 16.4683 217.049 16.5122 216.829 16.5122H211.671V6.84218ZM214.685 10.635H215.985C216.451 10.635 216.774 10.5558 216.954 10.3975C217.139 10.2348 217.231 10.0018 217.231 9.69834C217.231 9.4169 217.139 9.19703 216.954 9.03872C216.774 8.88041 216.457 8.80126 216.004 8.80126H214.685V10.635ZM214.685 14.4344H216.209C216.723 14.4344 217.086 14.3443 217.297 14.164C217.508 13.9793 217.614 13.733 217.614 13.4252C217.614 13.1394 217.508 12.9107 217.297 12.7392C217.091 12.5633 216.726 12.4753 216.202 12.4753H214.685V14.4344Z" fill="white"/>
<path d="M210.319 16.5122H206.955L205.794 14.0123C205.517 13.423 205.301 13.0558 205.147 12.9107C204.993 12.7612 204.78 12.6864 204.508 12.6864V16.5122H201.526V6.84218H204.508V10.5558C204.767 10.5427 204.969 10.4503 205.114 10.2788C205.259 10.1073 205.486 9.61479 205.794 8.80126C206.018 8.1988 206.245 7.76785 206.473 7.5084C206.702 7.24455 207.073 7.05546 207.588 6.94112C208.102 6.82679 208.909 6.76962 210.009 6.76962V8.81445H209.857C209.347 8.81445 208.969 8.91119 208.723 9.10468C208.476 9.29817 208.274 9.61259 208.116 10.0479C207.957 10.4789 207.786 10.8021 207.601 11.0176C207.421 11.2287 207.172 11.398 206.856 11.5255C207.287 11.6662 207.663 11.9103 207.984 12.2577C208.305 12.6007 208.646 13.1372 209.006 13.8671L210.319 16.5122Z" fill="white"/>
<path d="M197.179 12.5611L199.798 13.3526C199.622 14.087 199.345 14.7005 198.967 15.193C198.589 15.6855 198.118 16.0571 197.555 16.3077C196.997 16.5584 196.285 16.6837 195.418 16.6837C194.367 16.6837 193.507 16.532 192.839 16.2286C192.175 15.9208 191.601 15.3821 191.117 14.6125C190.634 13.843 190.392 12.8579 190.392 11.6574C190.392 10.0567 190.816 8.82764 191.665 7.97013C192.518 7.10823 193.723 6.67728 195.28 6.67728C196.498 6.67728 197.454 6.92353 198.149 7.41605C198.848 7.90857 199.367 8.66493 199.706 9.68515L197.067 10.2722C196.975 9.97758 196.878 9.7621 196.777 9.62578C196.61 9.39711 196.405 9.22122 196.164 9.09809C195.922 8.97496 195.651 8.91339 195.352 8.91339C194.675 8.91339 194.156 9.18604 193.796 9.73132C193.523 10.1359 193.387 10.7713 193.387 11.6376C193.387 12.7106 193.549 13.4472 193.875 13.8474C194.2 14.2431 194.657 14.441 195.247 14.441C195.818 14.441 196.249 14.2805 196.54 13.9595C196.834 13.6385 197.047 13.1723 197.179 12.5611Z" fill="white"/>
<path d="M178.842 11.6838C178.842 10.1051 179.282 8.87601 180.161 7.99652C181.041 7.11702 182.266 6.67728 183.836 6.67728C185.445 6.67728 186.685 7.11043 187.556 7.97673C188.426 8.83863 188.862 10.0479 188.862 11.6046C188.862 12.7348 188.671 13.6627 188.288 14.3883C187.91 15.1094 187.36 15.6723 186.639 16.0769C185.922 16.4771 185.027 16.6771 183.954 16.6771C182.864 16.6771 181.96 16.5034 181.243 16.156C180.531 15.8086 179.953 15.259 179.508 14.507C179.064 13.755 178.842 12.814 178.842 11.6838ZM181.83 11.697C181.83 12.6732 182.011 13.3746 182.371 13.8012C182.736 14.2277 183.231 14.441 183.855 14.441C184.497 14.441 184.994 14.2321 185.346 13.8144C185.698 13.3966 185.874 12.6468 185.874 11.5651C185.874 10.6548 185.689 9.99077 185.32 9.57301C184.955 9.15086 184.458 8.93978 183.829 8.93978C183.226 8.93978 182.743 9.15305 182.378 9.57961C182.013 10.0062 181.83 10.712 181.83 11.697Z" fill="white"/>
<path d="M166.158 6.84218H170.089L171.606 12.726L173.117 6.84218H177.035V16.5122H174.594V9.13766L172.701 16.5122H170.492L168.605 9.13766V16.5122H166.158V6.84218Z" fill="white"/>
</svg>
