<svg width="146" height="40" viewBox="0 0 146 40" fill="none" xmlns="http://www.w3.org/2000/svg">
<path fill-rule="evenodd" clip-rule="evenodd" d="M29.9165 5.15953C26.9812 3.19823 23.5302 2.15144 20 2.15153H19.9969C17.6524 2.14486 15.3297 2.60324 13.1635 3.50012C11.5288 4.17692 10.0077 5.09328 8.649 6.21643C11.4349 7.4656 13.7961 9.53884 15.396 12.1836C14.047 12.9885 12.9302 14.1302 12.1551 15.4965C11.38 16.8631 10.9732 18.4074 10.9747 19.9783C10.973 21.5495 11.3796 23.0942 12.1547 24.4609C12.9298 25.8277 14.0468 26.9696 15.396 27.7745C13.7919 30.4285 11.4215 32.5076 8.62428 33.7567C11.8104 36.3911 15.8289 37.8495 19.9978 37.8497C24.7321 37.8498 29.2725 35.9692 32.6202 32.6218C35.1168 30.1257 36.817 26.9454 37.5058 23.483C38.1947 20.0206 37.8414 16.4317 36.4905 13.1701C35.1397 9.90854 32.8518 7.12084 29.9165 5.15953ZM8.88636 3.37211C12.1749 1.1741 16.0415 0.000607883 19.9969 0H20C25.3043 0 30.3914 2.10713 34.1421 5.85786C37.8929 9.60859 40 14.6957 40 20C40 23.9554 38.8271 27.8222 36.6296 31.1111C34.4321 34.4 31.3087 36.9634 27.6544 38.4773C24 39.9911 19.9788 40.3874 16.0993 39.6159C12.2198 38.8445 8.65613 36.9399 5.85896 34.1432C3.06179 31.3465 1.15673 27.7831 0.384678 23.9036C-0.387373 20.0243 0.00825493 16.0031 1.52154 12.3484C3.03482 8.69388 5.59779 5.57009 8.88636 3.37211ZM125.316 15.1115C125.737 15.8136 126.343 16.3863 127.068 16.7666V16.7712C127.846 17.1662 128.706 17.3721 129.578 17.3721C130.45 17.3721 131.31 17.1662 132.087 16.7712C132.818 16.3821 133.43 15.8015 133.856 15.0915C134.282 14.3816 134.507 13.5691 134.507 12.7409C134.507 11.9128 134.282 11.1003 133.856 10.3904C133.43 9.68046 132.818 9.09984 132.087 8.71068C131.31 8.31572 130.45 8.10986 129.578 8.10986C128.706 8.10986 127.846 8.31572 127.068 8.71068C126.343 9.09102 125.737 9.66367 125.316 10.3658C124.901 11.0879 124.683 11.906 124.683 12.7386C124.683 13.5713 124.901 14.3894 125.316 15.1115ZM132.02 14.2201C131.786 14.6459 131.439 14.9982 131.016 15.2375V15.239C130.576 15.4778 130.084 15.6028 129.584 15.6025C129.083 15.6022 128.591 15.4768 128.152 15.2375C127.729 14.9982 127.381 14.6459 127.148 14.2201C126.909 13.7624 126.784 13.2536 126.784 12.7371C126.784 12.2206 126.909 11.7118 127.148 11.2541C127.381 10.8283 127.729 10.476 128.152 10.2367C128.591 9.99771 129.083 9.8725 129.584 9.8725C130.084 9.8725 130.577 9.99771 131.016 10.2367C131.439 10.476 131.786 10.8283 132.02 11.2541C132.259 11.7118 132.384 12.2206 132.384 12.7371C132.384 13.2536 132.259 13.7624 132.02 14.2201ZM54.6951 17.2259L52.9693 14.7301H51.0636V17.2259H48.9905V8.26936H52.8663C53.5758 8.25318 54.2806 8.38888 54.9333 8.66739C55.4932 8.90042 55.9682 9.29925 56.2945 9.81027C56.6209 10.3213 56.783 10.92 56.759 11.5259C56.7807 12.1288 56.615 12.7237 56.2848 13.2287C55.9545 13.7337 55.4759 14.124 54.9149 14.3459L56.9235 17.2259H54.6951ZM54.171 10.361C53.7616 10.0674 53.263 9.92505 52.7603 9.95831H51.0698V13.0811H52.7603C53.2639 13.1145 53.7633 12.9698 54.171 12.6723C54.4772 12.3736 54.6522 11.9657 54.6576 11.538C54.6631 11.1104 54.4985 10.6981 54.2002 10.3917L54.171 10.3625V10.361ZM66.6044 15.5632V17.2276H59.6719V8.26953H66.4338V9.93389H61.7312V11.8764H65.8806V13.487H61.7312V15.5601L66.6044 15.5632ZM76.8396 9.80972C76.5134 9.29852 76.038 8.89979 75.4779 8.66743C74.8246 8.3887 74.1193 8.25298 73.4093 8.2694H69.535V17.2213H71.6159V14.7532H73.4078C74.1169 14.7738 74.8223 14.6444 75.4779 14.3736C76.0303 14.1403 76.5006 13.7475 76.8287 13.2456C77.1514 12.731 77.316 12.1331 77.302 11.5259C77.3273 10.92 77.1657 10.3209 76.8396 9.80972ZM75.0869 12.1514C75.0016 12.3485 74.8725 12.5235 74.7095 12.6631H74.7156C74.3062 12.9553 73.8081 13.0965 73.3064 13.0627H71.6159V9.95681H73.3064C73.8095 9.92613 74.3076 10.0712 74.7156 10.3671C74.8805 10.5096 75.0102 10.6884 75.0946 10.8895C75.1788 11.0905 75.2154 11.3084 75.2012 11.5259C75.2112 11.7404 75.172 11.9543 75.0869 12.1514ZM81.0039 16.3193C80.2866 15.6124 79.9281 14.6017 79.9281 13.2872V8.26953H82.0013V13.2073C82.0013 14.8107 82.6671 15.6124 83.9991 15.6124C84.2739 15.6307 84.5491 15.5881 84.8056 15.4878C85.062 15.3872 85.2929 15.2315 85.4821 15.0315C85.8264 14.6411 85.9985 14.0361 85.9985 13.2165V8.26953H88.0455V13.2841C88.0455 14.6007 87.687 15.6113 86.9697 16.3162C86.2525 17.0212 85.2573 17.3756 83.9837 17.3797C82.7051 17.3797 81.7119 17.0262 81.0039 16.3193ZM90.2109 9.95855H93.0725V17.2261H95.1441V9.95855H98.0148V8.26807H90.2109V9.95855ZM105.852 15.3065H101.703L100.91 17.2244H98.7795L102.775 8.271H104.835L108.839 17.2244H106.654L105.852 15.3065ZM105.2 13.7328L103.791 10.2965L102.38 13.7251L105.2 13.7328ZM109.574 9.95855H112.443V17.2261H114.513V9.95855H117.378V8.26807H109.574V9.95855ZM119.776 8.26953H121.849V17.223H119.776V8.26953ZM145.535 8.26953V17.223H143.845L139.388 11.7857V17.223H137.33V8.26953H139.045L143.502 13.7067V8.26953H145.535ZM55.9215 31.8916V30.2272L51.0483 30.2287V28.1556H55.1976V26.5419H51.0483V24.5994H55.7524V22.9351H48.9905V31.8916H55.9215ZM64.7488 29.9676H60.5994L59.8064 31.8856H57.6764L61.6721 22.9321H63.7191L67.724 31.8856H65.5448L64.7488 29.9676ZM64.0972 28.3939L62.6864 24.9653L61.2756 28.3939H64.0972ZM73.9196 29.3997L75.6424 31.8924L77.8707 31.8878L75.8621 29.0078C76.4232 28.7859 76.9018 28.3955 77.232 27.8907C77.5623 27.3857 77.728 26.7908 77.7063 26.1878C77.7215 25.5784 77.5568 24.9783 77.233 24.4619C76.9022 23.9623 76.4327 23.5703 75.8821 23.3339C75.2294 23.0553 74.5247 22.9196 73.8151 22.9359H69.9377V31.8924H72.014V29.3997H73.9196ZM73.7075 24.6248C74.2102 24.5918 74.7088 24.7341 75.1183 25.0275L75.1199 25.0213L75.1491 25.0505C75.2977 25.2025 75.4146 25.3823 75.4936 25.5795C75.5724 25.7768 75.6116 25.9878 75.6087 26.2004C75.6059 26.4127 75.5611 26.6225 75.4769 26.8177C75.3928 27.0129 75.2709 27.1895 75.1183 27.3373C74.7106 27.6348 74.2111 27.7796 73.7075 27.7461H72.017V24.6248H73.7075ZM82.3376 24.6241H79.473V22.9336H87.2769V24.6241H84.4108V31.8886H82.3376V24.6241ZM97.8794 31.8885V22.9351H95.8139V26.4697H91.7475V22.9351H89.6682V31.8885H91.7475V28.2217H95.8078V31.8885H97.8794ZM28.0439 24.3016C27.7227 24.1753 27.3808 24.1101 27.0358 24.1095L27.0327 24.111C26.5787 24.1098 26.1314 24.2204 25.7302 24.433C25.3291 24.6457 24.9864 24.9536 24.7326 25.33C24.4787 25.7064 24.3213 26.1394 24.2743 26.591C24.2273 27.0425 24.2921 27.4986 24.4631 27.9192C23.0719 28.6921 21.5019 29.0857 19.9105 29.0606C18.3192 29.0356 16.7622 28.5926 15.396 27.7763C16.8148 25.4241 17.5646 22.7293 17.5646 19.9824C17.5646 17.2355 16.8148 14.5406 15.396 12.1885C17.1032 11.1678 19.0985 10.736 21.075 10.9593C23.0516 11.1826 24.9001 12.0486 26.3367 13.4245C27.7733 14.8003 28.7184 16.6097 29.0267 18.5748C29.3351 20.5398 28.9898 22.5518 28.0439 24.3016ZM28.044 24.3018C27.2187 25.8226 25.9779 27.0772 24.4663 27.9194C24.639 28.3429 24.9143 28.7172 25.2671 29.0082C25.62 29.2994 26.0395 29.4985 26.4883 29.5876C26.9369 29.6769 27.4007 29.6534 27.8381 29.5194C28.2754 29.3854 28.6729 29.145 28.9945 28.8197C29.3162 28.4945 29.5522 28.0944 29.6813 27.6555C29.8106 27.2168 29.8288 26.7527 29.7346 26.305C29.6404 25.8573 29.4366 25.4401 29.1417 25.0904C28.8467 24.7408 28.4695 24.4699 28.044 24.3018Z" fill="white"/>
</svg>
